<?xml version="1.0" standalone="no"?><svg xmlns="http://www.w3.org/2000/svg" viewBox="0 0 1440 320"><path fill="#ffffff" fill-opacity="1" d="M0,0L21.8,37.3C43.6,75,87,149,131,197.3C174.5,245,218,267,262,245.3C305.5,224,349,160,393,154.7C436.4,149,480,203,524,234.7C567.3,267,611,277,655,256C698.2,235,742,181,785,170.7C829.1,160,873,192,916,208C960,224,1004,224,1047,197.3C1090.9,171,1135,117,1178,122.7C1221.8,128,1265,192,1309,197.3C1352.7,203,1396,149,1418,122.7L1440,96L1440,320L1418.2,320C1396.4,320,1353,320,1309,320C1265.5,320,1222,320,1178,320C1134.5,320,1091,320,1047,320C1003.6,320,960,320,916,320C872.7,320,829,320,785,320C741.8,320,698,320,655,320C610.9,320,567,320,524,320C480,320,436,320,393,320C349.1,320,305,320,262,320C218.2,320,175,320,131,320C87.3,320,44,320,22,320L0,320Z"></path></svg>