<?xml version="1.0" encoding="UTF-8" standalone="no"?>
<svg
   xmlns:dc="http://purl.org/dc/elements/1.1/"
   xmlns:cc="http://creativecommons.org/ns#"
   xmlns:rdf="http://www.w3.org/1999/02/22-rdf-syntax-ns#"
   xmlns:svg="http://www.w3.org/2000/svg"
   xmlns="http://www.w3.org/2000/svg"
   xmlns:sodipodi="http://sodipodi.sourceforge.net/DTD/sodipodi-0.dtd"
   xmlns:inkscape="http://www.inkscape.org/namespaces/inkscape"
   width="16"
   height="16"
   fill="currentColor"
   class="bi bi-flag"
   viewBox="0 0 16 16"
   version="1.1"
   id="svg4"
   sodipodi:docname="flag1.svg"
   inkscape:version="0.92.5 (2060ec1f9f, 2020-04-08)">
  <metadata
     id="metadata10">
    <rdf:RDF>
      <cc:Work
         rdf:about="">
        <dc:format>image/svg+xml</dc:format>
        <dc:type
           rdf:resource="http://purl.org/dc/dcmitype/StillImage" />
        <dc:title></dc:title>
      </cc:Work>
    </rdf:RDF>
  </metadata>
  <defs
     id="defs8" />
  <sodipodi:namedview
     pagecolor="#ffffff"
     bordercolor="#666666"
     borderopacity="1"
     objecttolerance="10"
     gridtolerance="10"
     guidetolerance="10"
     inkscape:pageopacity="0"
     inkscape:pageshadow="2"
     inkscape:window-width="1326"
     inkscape:window-height="704"
     id="namedview6"
     showgrid="false"
     inkscape:zoom="11.313709"
     inkscape:cx="-6.7529382"
     inkscape:cy="17.093097"
     inkscape:window-x="40"
     inkscape:window-y="27"
     inkscape:window-maximized="1"
     inkscape:current-layer="svg4" />
  <path
     style="color:#000000;font-style:normal;font-variant:normal;font-weight:normal;font-stretch:normal;font-size:medium;line-height:normal;font-family:sans-serif;font-variant-ligatures:normal;font-variant-position:normal;font-variant-caps:normal;font-variant-numeric:normal;font-variant-alternates:normal;font-feature-settings:normal;text-indent:0;text-align:start;text-decoration:none;text-decoration-line:none;text-decoration-style:solid;text-decoration-color:#000000;letter-spacing:normal;word-spacing:normal;text-transform:none;writing-mode:lr-tb;direction:ltr;text-orientation:mixed;dominant-baseline:auto;baseline-shift:baseline;text-anchor:start;white-space:normal;shape-padding:0;clip-rule:nonzero;display:inline;overflow:visible;visibility:visible;opacity:1;isolation:auto;mix-blend-mode:normal;color-interpolation:sRGB;color-interpolation-filters:linearRGB;solid-color:#000000;solid-opacity:1;vector-effect:none;fill:#000000;fill-opacity:1;fill-rule:nonzero;stroke:none;stroke-width:1;stroke-linecap:butt;stroke-linejoin:miter;stroke-miterlimit:4;stroke-dasharray:none;stroke-dashoffset:0;stroke-opacity:1;color-rendering:auto;image-rendering:auto;shape-rendering:auto;text-rendering:auto;enable-background:accumulate"
     d="m -15.796875,-6.3339844 c -0.236111,0 -0.47894,0.076983 -0.675781,0.2519532 -0.196841,0.1749696 -0.324219,0.4563802 -0.324219,0.7480468 v 15 c 0,0.2916666 0.127378,0.5750304 0.324219,0.7500004 0.196841,0.174969 0.43967,0.25 0.675781,0.25 0.236111,0 0.47894,-0.07503 0.675781,-0.25 0.196841,-0.17497 0.324219,-0.4583338 0.324219,-0.7500004 V 3.8652344 c 0.235897,-0.083839 0.47191,-0.1696207 0.710937,-0.2441406 0.777183,-0.2402554 1.698587,-0.4550782 2.289063,-0.4550782 0.530625,0 0.995973,0.1759021 1.626953,0.4296875 l 0.0098,0.00391 0.01953,0.00586 c 0.6106764,0.2452716 1.3865572,0.5605468 2.34375,0.5605468 0.9397044,0 2.0210118,-0.2866187 2.8574219,-0.5449218 0.417835,-0.1275603 0.7799347,-0.2537339 1.046875,-0.3496094 l 0.00391,0.00977 0.421875,-0.1699219 0.00586,-0.00195 0.00391,-0.00195 0.035156,-0.013672 0.00586,-0.00195 L -2.9492188,2.9375 -3.0859375,2.59375 c 0.094338,-0.1540178 0.2890184,-0.2400513 0.2890625,-0.4277344 v -7.5 c -2.854e-4,-0.2414483 -0.09307,-0.3539421 -0.171875,-0.4550781 -0.078805,-0.101136 -0.1690795,-0.1836096 -0.2714844,-0.2578125 -0.1867173,-0.135296 -0.4341128,-0.2357583 -0.7460937,-0.2207031 v -0.027344 h -0.1191407 l -0.083984,0.041016 -0.00391,0.00195 c -0.4323944,0.1705715 -0.8707632,0.3262856 -1.3144531,0.4648437 v -0.00195 c -0.7771823,0.2402554 -1.6985863,0.4550781 -2.2890625,0.4550781 -0.5647898,0 -1.0268127,-0.1754186 -1.6425781,-0.4238281 l -0.00586,-0.00195 -0.039063,-0.017578 h -0.00391 c -0.5971188,-0.2420479 -1.3586728,-0.5566406 -2.3085938,-0.5566406 -0.939237,0 -2.020194,0.2890168 -2.855469,0.5449219 -0.111653,0.03418 -0.1953,0.063986 -0.298828,0.097656 -0.05662,-0.135989 -0.06707,-0.2992044 -0.169922,-0.390625 -0.196841,-0.1749697 -0.43967,-0.2519532 -0.675781,-0.2519532 z m 11.8105469,0.5761719 0.0625,0.4589844 c -0.004,5.451e-4 0.00872,0.00339 0.00586,0.00391 h -0.068359 z m -7.8105469,0.4238281 c 0.730079,0 1.336712,0.2404699 1.9335938,0.4824219 l 0.025391,0.011719 c -0.6210844,-0.2496851 -1.2170484,-0.4941406 -1.9589844,-0.4941406 z m 8,0.00195 -0.072266,0.037109 h -0.035156 c 0.021859,-0.00852 0.044577,-0.014842 0.066406,-0.023437 l 0.011719,-0.00391 z m -0.1152344,0.041016 c -0.00362,0.00101 0.011609,0.0067 0.011719,0.00781 l -0.5625,0.1992187 c -0.1978113,0.070133 -0.4337561,0.1483937 -0.6835938,0.2265625 0.4155915,-0.1313414 0.8282106,-0.275501 1.234375,-0.4335937 z m -10.4472656,0.4570312 c -0.37346,0.1152262 -0.742651,0.2418129 -1.109375,0.3769532 l -0.328125,0.1191406 v -0.00977 l 0.666016,-0.2324219 c 0.221805,-0.077534 0.485758,-0.1664391 0.771484,-0.2539063 z m 2.5625,0.5 c 0.529454,0 0.976601,0.1738156 1.603516,0.4257813 l 0.0059,0.00195 c 0.6112429,0.2480986 1.3970253,0.5722656 2.390625,0.5722656 0.9667951,0 2.0515314,-0.2882542 2.8828125,-0.546875 0.043711,-0.013458 0.074769,-0.023669 0.1171875,-0.037109 v 5.3808594 c -0.2430645,0.085 -0.4863518,0.1721175 -0.7324219,0.2480469 -0.7875229,0.2423896 -1.7138496,0.4550781 -2.2675781,0.4550781 -0.530625,0 -0.995973,-0.173949 -1.6269531,-0.4277344 l -0.00977,-0.00391 -0.017578,-0.00781 -0.00977,-0.00195 C -10.070457,1.4797771 -10.843632,1.1660156 -11.796875,1.1660156 c -0.966408,0 -2.050727,0.2869766 -2.882813,0.546875 -0.04381,0.013488 -0.07468,0.02364 -0.117187,0.037109 v -5.3789062 c 0.243589,-0.085209 0.485811,-0.1719584 0.732422,-0.2480469 0.787634,-0.2424237 1.712679,-0.4570313 2.267578,-0.4570313 z m 0,6.5 c 0.736807,0 1.363333,0.2455061 1.9726562,0.4902344 l 0.00781,0.00195 0.00195,0.00195 0.017578,0.00586 c 0.0019,7.654e-4 0.00396,0.00119 0.00586,0.00195 0.6349823,0.2553797 1.2470041,0.4980468 1.9941406,0.4980468 -0.7368072,0 -1.3613796,-0.2435529 -1.9707031,-0.4882812 l -0.00977,-0.00391 -0.00195,-0.00195 -0.011719,-0.00391 h -0.00391 C -10.431942,2.4117542 -11.0475,2.1660156 -11.796875,2.1660156 Z m 7.6523438,0.1328125 c -0.021414,0.00781 -0.042994,0.015745 -0.064453,0.023437 -0.2597249,0.093462 -0.6186253,0.2201655 -1.0234375,0.34375 0.365572,-0.1128378 0.7287607,-0.2352844 1.0878907,-0.3671875 z M -14.550781,2.7246094 c -0.309352,0.099421 -0.617683,0.2021186 -0.921875,0.3164062 l -0.324219,0.1210938 v -0.00977 l 0.667969,-0.2363282 c 0.167274,-0.059306 0.372501,-0.1253795 0.578125,-0.1914062 z"
     id="path2"
     inkscape:connector-curvature="0" />
</svg>
